<?xml version="1.0" standalone="no"?>
<!DOCTYPE svg PUBLIC "-//W3C//DTD SVG 1.0//EN" "http://www.w3.org/TR/2001/REC-SVG-20010904/DTD/svg10.dtd">
<svg xmlns="http://www.w3.org/2000/svg" xmlns:xlink="http://www.w3.org/1999/xlink" id="body_1" width="100" height="100">

<g transform="matrix(1.3333334 0 0 1.3333334 0 0)">
	<path  d="M0 0L75 0L75 75L0 75z" stroke="none"  fill="#FFFFFF" fill-rule="evenodd" />
	<g transform="matrix(0.75 0 0 0.75 0 0)">
		<g transform="matrix(4.166667 0 0 4.166667 0 0)">
			<path  d="M4 11L4 13L16 13L16 15L18 15L18 13L20 13L20 11L18 11L18 9L16 9L16 11L4 11zM14 7L16 7L16 9L14 9L14 7zM14 7L12 7L12 5L14 5L14 7zM14 17L16 17L16 15L14 15L14 17zM14 17L12 17L12 19L14 19L14 17z" stroke="none"  fill="#FFFFFF" fill-rule="nonzero" />
		</g>
	</g>
</g>
</svg>
